<?xml version="1.0" encoding="UTF-8"?>
<svg xmlns="http://www.w3.org/2000/svg" version="1.1" viewBox="0 0 2269.1 544.7">
  <defs>
    <style>
      .cls-1 {
        fill-rule: oddeven;
      }

      .cls-2 {
        fill: #000;
      }
    </style>
  </defs>
  <!-- Generator: Adobe Illustrator 28.7.1, SVG Export Plug-In . SVG Version: 1.2.0 Build 142)  -->
  <g>
    <g id="Layer_1">
      <path class="cls-2" d="M-129.9,1522.4h2500V-977.6H-129.9V1522.4Z"/>
      <path class="cls-1" d="M887.5,393.7l-31.1,144.7h-71.6L903.1,14h84.8l111.3,524.5h-72.4l-30.3-144.7h-108.9ZM987.9,335.4l-24.1-125.3c-7-35.8-14-82.5-19.4-119.8h-3.1c-5.4,38.1-13.2,86.4-20.2,119.8l-24.9,125.3h91.8,0ZM1372.5,0v441.2c0,28.8,1.6,70.8,3.1,97.3h-63l-4.7-45.9h-2.3c-12.5,26.4-41.2,52.1-79.4,52.1-70,0-112.8-76.3-112.8-193.8s56.8-196.9,116.7-196.9,54.5,14,67.7,42.8h1.6V0h73.1ZM1299.3,304.3c0-7,0-15.6-.8-23.4-3.9-34.2-23.3-63.8-49.8-63.8-45.9,0-61.5,63.8-61.5,133.8s20.2,132.3,59.1,132.3,38.1-8.6,50.6-53.7c1.6-6.2,2.3-15.6,2.3-24.1v-101.2h0ZM1546.7,544.7c-75.5,0-130-64.6-130-194.5s64.6-196.1,133.8-196.1,128.4,66.9,128.4,194.5-73.9,196.1-131.5,196.1h-.8,0ZM1549,487.1c45.1,0,55.3-80.2,55.3-137.7s-10.1-137.7-56.8-137.7-57.6,80.9-57.6,137.7,10.9,137.7,58.4,137.7h.8ZM1723.1,0h73.1v203.1h1.6c19.5-34.2,45.9-49,79.4-49,64.6,0,105.1,73.1,105.1,189.1s-55.3,201.5-117.5,201.5-58.4-20.2-74.7-53.7h-3.1l-3.9,47.5h-63c1.6-25.7,3.1-68.5,3.1-97.3V0h0ZM1796.2,404.6c0,8.6.8,17.1,3.1,23.4,11.7,45.9,34.2,55.3,49,55.3,43.6,0,59.9-57.6,59.9-135.4s-17.1-130.7-60.7-130.7-43.6,28.8-49,56c-1.6,7.8-2.3,17.9-2.3,25.7v105.8h0,0ZM2090.1,364.2c.8,97.3,42.8,121.4,87.1,121.4s49-6.2,65.4-14l10.9,52.9c-22.6,11.7-56.8,17.9-90.3,17.9-94.9,0-144.7-71.6-144.7-188.3s56.8-200,135.4-200,115.2,75.5,115.2,170.4-.8,30.3-1.6,40.5l-177.4-.8h0ZM2199.8,312c.8-66.9-22.6-102.7-51.3-102.7s-55.3,55.3-57.6,102.7h108.9Z"/>
      <path class="cls-1" d="M372.6,15.4h218.5v523.1L372.6,15.4ZM218.7,15.4H0v523.1L218.7,15.4ZM295.6,208.2l139.2,330.3h-91.2l-41.6-105.2h-101.9l95.5-225.1h0Z"/>
      <path class="cls-1" d="M2262.9,153.1c9.2,0,16.6,7.5,16.5,16.7,0,0,0,0,0,.1,0,9.5-7.3,16.9-16.6,16.9s-16.7-7.4-16.7-16.9c0-9.2,7.4-16.8,16.6-16.8,0,0,0,0,0,0h0ZM2262.8,155.7c-7.4,0-13.5,6.4-13.5,14.2s6.1,14.3,13.5,14.3c7.5,0,13.4-6.3,13.4-14.2s-6-14.3-13.4-14.3h0ZM2259.7,179.7h-3v-18.8c1.6-.2,3.1-.5,5.3-.5s4.7.6,5.8,1.4,1.7,2.1,1.7,3.9-1.6,4-3.7,4.6h0c1.6.4,2.8,1.9,3.1,4.7.5,2.9.9,4,1.2,4.6h-3.1c-.5-.6-.9-2.3-1.3-4.8-.5-2.4-1.6-3.3-4-3.3h-2.1v8.1h0ZM2259.7,169.3h2.2c2.5,0,4.6-.9,4.6-3.2s-1.2-3.3-4.6-3.3-1.6,0-2.2.2v6.4ZM619.9,15.4c9.2,0,16.6,7.5,16.5,16.7,0,0,0,0,0,.1,0,9.5-7.3,16.9-16.6,16.9s-16.7-7.4-16.7-16.9c0-9.2,7.4-16.8,16.6-16.8,0,0,0,0,0,0h0ZM619.8,18c-7.4,0-13.5,6.4-13.5,14.2s6.1,14.3,13.5,14.3c7.5,0,13.5-6.3,13.5-14.2s-6-14.3-13.5-14.3h0ZM616.7,42h-3v-18.8c1.8-.3,3.5-.4,5.3-.4,2.8,0,4.7.6,5.8,1.4,1.1.8,1.7,2.1,1.7,3.9s-1.6,4-3.7,4.6h0c1.6.4,2.8,1.9,3.2,4.7.4,2.9.9,4,1.2,4.6h-3.1c-.5-.6-.9-2.3-1.3-4.8-.5-2.4-1.6-3.3-4-3.3h-2.1v8.1h0ZM616.7,31.6h2.2c2.5,0,4.6-.9,4.6-3.2s-1.2-3.3-4.6-3.3-1.6,0-2.2.2v6.4Z"/>
    </g>
  </g>
</svg>