<svg xmlns="http://www.w3.org/2000/svg" xmlns:xlink="http://www.w3.org/1999/xlink" viewBox="0 0 115.8 187.6"><defs><style>      .cls-1 {        fill: #58595b;      }      .cls-2 {        fill: #fff;        fill-rule: evenodd;      }      .cls-3 {        fill: url(#linear-gradient-8);      }      .cls-4 {        fill: url(#linear-gradient-7);      }      .cls-5 {        fill: url(#linear-gradient-5);      }      .cls-6 {        fill: url(#linear-gradient-6);      }      .cls-7 {        fill: url(#linear-gradient-9);      }      .cls-8 {        fill: url(#linear-gradient-4);      }      .cls-9 {        fill: url(#linear-gradient-3);      }      .cls-10 {        fill: url(#linear-gradient-2);      }      .cls-11 {        fill: url(#linear-gradient);      }      .cls-12 {        fill: url(#linear-gradient-10);      }    </style><linearGradient id="linear-gradient" x1="57.9" y1="95.5" x2="115.8" y2="95.5" gradientTransform="translate(0 190) scale(1 -1)" gradientUnits="userSpaceOnUse"><stop offset="0" stop-color="#be1e2d"></stop><stop offset=".4" stop-color="#d51c28"></stop><stop offset=".7" stop-color="#e61c25"></stop><stop offset="1" stop-color="#ed1c24"></stop></linearGradient><linearGradient id="linear-gradient-2" x1="16.2" y1="179.4" x2="16.2" y2="149.2" gradientTransform="translate(0 190) scale(1 -1)" gradientUnits="userSpaceOnUse"><stop offset="0" stop-color="#ed1c24"></stop><stop offset=".2" stop-color="#e71b23"></stop><stop offset=".4" stop-color="#d61a21"></stop><stop offset=".6" stop-color="#ba181e"></stop><stop offset=".9" stop-color="#941519"></stop><stop offset="1" stop-color="#881518"></stop></linearGradient><linearGradient id="linear-gradient-3" x1="32.2" y1="186.4" x2="32.2" y2="156.9" gradientTransform="translate(0 190) scale(1 -1)" gradientUnits="userSpaceOnUse"><stop offset="0" stop-color="#ed1c24"></stop><stop offset=".2" stop-color="#e71b23"></stop><stop offset=".4" stop-color="#d61a21"></stop><stop offset=".6" stop-color="#ba181e"></stop><stop offset=".9" stop-color="#941519"></stop><stop offset="1" stop-color="#881518"></stop></linearGradient><linearGradient id="linear-gradient-4" x1="50.1" y1="190" x2="50.1" y2="160.8" gradientTransform="translate(0 190) scale(1 -1)" gradientUnits="userSpaceOnUse"><stop offset="0" stop-color="#ed1c24"></stop><stop offset=".2" stop-color="#e71b23"></stop><stop offset=".4" stop-color="#d61a21"></stop><stop offset=".6" stop-color="#ba181e"></stop><stop offset=".9" stop-color="#941519"></stop><stop offset="1" stop-color="#881518"></stop></linearGradient><linearGradient id="linear-gradient-5" x1="66.8" y1="189.7" x2="66.8" y2="160.4" gradientTransform="translate(0 190) scale(1 -1)" gradientUnits="userSpaceOnUse"><stop offset="0" stop-color="#ed1c24"></stop><stop offset=".2" stop-color="#e71b23"></stop><stop offset=".4" stop-color="#d61a21"></stop><stop offset=".6" stop-color="#ba181e"></stop><stop offset=".9" stop-color="#941519"></stop><stop offset="1" stop-color="#881518"></stop></linearGradient><linearGradient id="linear-gradient-6" x1="86" y1="186.7" x2="86" y2="155.1" gradientTransform="translate(0 190) scale(1 -1)" gradientUnits="userSpaceOnUse"><stop offset="0" stop-color="#ed1c24"></stop><stop offset=".2" stop-color="#e71b23"></stop><stop offset=".4" stop-color="#d61a21"></stop><stop offset=".6" stop-color="#ba181e"></stop><stop offset=".9" stop-color="#941519"></stop><stop offset="1" stop-color="#881518"></stop></linearGradient><linearGradient id="linear-gradient-7" x1="103.2" y1="177" x2="103.2" y2="148" gradientTransform="translate(0 190) scale(1 -1)" gradientUnits="userSpaceOnUse"><stop offset="0" stop-color="#ed1c24"></stop><stop offset=".2" stop-color="#e71b23"></stop><stop offset=".4" stop-color="#d61a21"></stop><stop offset=".6" stop-color="#ba181e"></stop><stop offset=".9" stop-color="#941519"></stop><stop offset="1" stop-color="#881518"></stop></linearGradient><linearGradient id="linear-gradient-8" x1="40.9" y1="29" x2="40.9" y2="2.9" gradientTransform="translate(0 190) scale(1 -1)" gradientUnits="userSpaceOnUse"><stop offset="0" stop-color="#58595b"></stop><stop offset=".2" stop-color="#525355"></stop><stop offset=".5" stop-color="#434244"></stop><stop offset=".9" stop-color="#2b2729"></stop><stop offset="1" stop-color="#231f20"></stop></linearGradient><linearGradient id="linear-gradient-9" x1="55.4" y1="27.5" x2="55.4" y2="2.4" gradientTransform="translate(0 190) scale(1 -1)" gradientUnits="userSpaceOnUse"><stop offset="0" stop-color="#58595b"></stop><stop offset=".2" stop-color="#525355"></stop><stop offset=".5" stop-color="#434244"></stop><stop offset=".9" stop-color="#2b2729"></stop><stop offset="1" stop-color="#231f20"></stop></linearGradient><linearGradient id="linear-gradient-10" x1="72.1" y1="29.2" x2="72.1" y2="2.4" gradientTransform="translate(0 190) scale(1 -1)" gradientUnits="userSpaceOnUse"><stop offset="0" stop-color="#58595b"></stop><stop offset=".2" stop-color="#525355"></stop><stop offset=".5" stop-color="#434244"></stop><stop offset=".9" stop-color="#2b2729"></stop><stop offset="1" stop-color="#231f20"></stop></linearGradient></defs><g><g id="Laag_1"><circle class="cls-1" cx="57.8" cy="94.6" r="57.9"></circle><path class="cls-11" d="M57.9,36.6c32,0,57.9,25.9,57.9,57.9s-25.9,57.9-57.9,57.9"></path><g><path class="cls-10" d="M8.4,28.3l4.6-2.9,5.7,9c.2.3.4.4.7.2l1.7-1.1c.3-.2.3-.5.1-.8l-9.2-14.7-5.2,3.2-2-5,9.2-5.7,12.8,20.4c1.2,1.9,1,4.1-1.1,5.4l-5.7,3.6c-1.9,1.2-3.9.8-5.1-1.1l-6.7-10.7.2.2Z"></path><path class="cls-9" d="M42.4,25.6c.7,2,.5,4.1-2.5,5.1l-6.2,2.1c-3,1-4.4-.4-5.1-2.5l-6.7-19.4c-.7-2.1,0-3.8,2.4-4.7l6.6-2.3c2.5-.9,4.1,0,4.8,2.2l6.7,19.4h0ZM28.1,10.1c-.4.1-.4.3-.3.7l5.6,16.2c0,.4.3.5.7.4l2-.7c.4-.2.5-.3.3-.7l-5.6-16.2c-.1-.3-.3-.5-.7-.4l-2.1.7h.1Z"></path><path class="cls-8" d="M58.4,23.4c.3,3.1-.7,4.4-3.9,4.8l-9.9,1-2.8-28,10.9-1.2c2.2-.2,3.5,1,3.7,3.1l2,20.3ZM47.8,5.5l1.8,18.2,2.6-.3c.5,0,.5-.2.5-.6l-1.7-17.1c0-.3-.2-.5-.6-.5l-2.7.3h.1Z"></path><path class="cls-5" d="M65.3,24.9l-.9,3.4-5.6-.7L67.2.3l6,.7,1.6,28.6-5.6-.7v-3.5s-3.9-.5-3.9-.5ZM66.4,20.6l2.6.3v-10.1s-2.6,9.8-2.6,9.8Z"></path><path class="cls-6" d="M92.4,24c-.4,1.2-1.7,2-3.2,1.4l-.4,9.4-5.5-2,.6-9.4-.7-.3-3.1,8.4-5.3-2,9.8-26.4,10,3.7c2.5.9,3.1,2.7,2.3,4.8l-4.6,12.2v.2ZM88.2,9.9l-3.4,9.1,2.6,1c.4.1.6,0,.7-.4l3-8c0-.3,0-.6-.3-.7,0,0-2.6-1-2.6-1Z"></path><path class="cls-4" d="M103.6,40c-1.2,1.8-3,2.8-5.6,1.1l-5.4-3.6c-2.6-1.7-2.3-3.8-1.1-5.6l11.4-17.1c1.2-1.8,3-2.4,5.2-.9l5.8,3.9c2.2,1.5,2.4,3.3,1.1,5.2l-11.4,17.1h0ZM107.3,19.3c-.3-.2-.5-.1-.7.2l-9.5,14.3c-.2.4-.3.5,0,.8l1.8,1.2c.4.3.5.2.8-.2l9.5-14.3c.2-.3.2-.5,0-.7l-1.8-1.2h-.1Z"></path></g><g><path class="cls-3" d="M36.8,163.6c.3-1.8,1.5-2.8,3.4-2.5l7,1.1v4.7c0,0-5.3-.9-5.3-.9-.3,0-.5,0-.5.4l-2.3,14.6c0,.3,0,.5.4.5l2.2.4,1.5-9.7,4.8.8-2.3,14.2-8.6-1.4c-2.8-.4-3.7-1.7-3.2-4.4l2.8-17.8h0Z"></path><path class="cls-7" d="M57.3,187.6h-5.2c0-.1.2-6.5.2-6.5l-4.2-18.7h5.1c0,.1,1.9,11.9,1.9,11.9l2.6-11.7h5.1c0,.1-5.3,18.6-5.3,18.6l-.2,6.3h0Z"></path><path class="cls-12" d="M69.1,175.3l1.6,11.6-4.8.6-3.3-24.7,5.2-.7,4.1,10,1.3-10.8,5.2-.7,3.3,24.7-4.8.6-1.6-11.6-1.8,10.3-4.4-9.4h0Z"></path></g><path class="cls-2" d="M52.6,36.9c-.8.3-1.5.7-2.1,1.2-2.7,2.1-3.3,5.5-3.4,9.6.2.6-.8,0-.5.8,1,1.5.3,3.5.8,5.2.2.6.9,1.2,1.2,1.9.9,2.3,1,4.3,2.4,5.4-1.4.2-2.7,1.6-4.1,1.9-1.5.3-3-.2-4.2,0-4.1.7-5.6,3.7-7.3,7.1-.2-4.4.2-9.6,3-11.5,2.9.6,7.9-.3,7.6-2.9,0-1-.5-1.2-1.7-1.4,4.1-2.3-1.9-7.3-4-7.6-4.7-.7-6.2,4.3-7.8,6.8-1.2,1.8-2,3.4-3,4.7,0,.7.9.6.7,1.5-1,3.2-3.7,7.2-4.2,11.7-.2,1.6.1,3.4,0,5.1-.2,2.3-1,4.7-.7,6.6.4,2.9,3.1,4.4,6.4,3.9,4.4-.6,8.9-5.2,10.3-8.9,1.4,2.1,1.3,5.5,1.7,8.8.6,5.3,2,13.1.2,17.7,1.5,5-1.6,7.7-3.2,11.3-1.2,2.8-2,5.7-2.2,8.9,0,1.4.4,3.1.2,4.7,0,.8-.8,1.7-1,2.7s0,2.1-.3,3.2c-.4,1.7-1.2,3.5-1.5,5.6-.3,2-1.2,4.9-.8,6.4,0,.2,0,.3,0,.4,7,3,14.7,4.7,22.8,4.7s0,0,.2,0c0-1.2,0-3.3,0-3.3,0-3.1.5-5.6,1.3-7.8,1.7,2.6,2.5,6.1,4.6,8.3.2.7.4,1.5.6,2.3,5.8-.7,11.4-2.2,16.5-4.5-.3-4.1-1.2-7.7-1.1-11.5,0-5.6.9-12.3-1-16.7-.5-1.1-1.3-2.2-1.9-3.4-.6-1.3-.9-2.8-1.5-3.9-.5-.9-1.2-1.2-1.3-2.2-.2-1.3.4-2.4.5-3.7.5-7.4,2.9-15.8,3-25,2.1,1.4,5.2,3,8.6,2.4,2.1-.4,4.7-2.8,5.6-4.2-1.1-12.8-8.1-19.7-12.8-28.9,0-.9-.2-1.2-.2-2-3.5-.6-6.2-5.9-8.9-6.2-1.9-.2-3,1.4-4.2,1.9,0-3.8-2.4-6.2-5.6-7.3h-2.5c-1.8,0-3.6,0-5.3.3h0ZM63.5,55.6c.3-.3.6,0,1.2,0,.4-.6.4-1.6.7-2.4,2.6-.4,3.7,1.9,7.1,1.2.4.8,1,1.3,1.3,2.2.5-.2.6-.8.8-1.2,1.4,2.5,2.7,5.1,3.4,8.3-4.4-2.7-11.6-1.7-14.9-5.7,0-.8.4-1.4.3-2.4h.1Z"></path></g></g></svg>