<svg width="192" height="48" viewBox="0 0 192 48" fill="black" xmlns="http://www.w3.org/2000/svg">
<path d="M64.392 18.72V21.216H61.384V30H58.248V21.216H55.272V18.72H64.392ZM74.1603 30.112C73.1043 30.112 72.1336 29.8667 71.2483 29.376C70.3629 28.8747 69.6589 28.1867 69.1362 27.312C68.6242 26.4267 68.3682 25.4293 68.3682 24.32C68.3682 23.2107 68.6242 22.2187 69.1362 21.344C69.6589 20.4587 70.3629 19.7707 71.2483 19.28C72.1336 18.7893 73.1043 18.544 74.1603 18.544C75.2269 18.544 76.1976 18.7893 77.0723 19.28C77.9576 19.7707 78.6563 20.4587 79.1683 21.344C79.6803 22.2187 79.9363 23.2107 79.9363 24.32C79.9363 25.4293 79.6803 26.4267 79.1683 27.312C78.6563 28.1867 77.9576 28.8747 77.0723 29.376C76.1869 29.8667 75.2163 30.112 74.1603 30.112ZM74.1603 27.2C74.9603 27.2 75.5896 26.9387 76.0483 26.416C76.5176 25.8933 76.7523 25.1947 76.7523 24.32C76.7523 23.424 76.5176 22.72 76.0483 22.208C75.5896 21.6853 74.9603 21.424 74.1603 21.424C73.3496 21.424 72.7149 21.6853 72.2562 22.208C71.7976 22.72 71.5682 23.424 71.5682 24.32C71.5682 25.2053 71.7976 25.9093 72.2562 26.432C72.7149 26.944 73.3496 27.2 74.1603 27.2ZM99.3045 18.72V21.216H96.2965V30H93.1605V21.216H90.1845V18.72H99.3045ZM113.761 18.72V30H110.625V25.472H106.801V30H103.665V18.72H106.801V22.96H110.625V18.72H113.761ZM121.891 21.232V23.072H125.491V25.456H121.891V27.488H125.971V30H118.755V18.72H125.971V21.232H121.891ZM142.696 30L140.456 25.84H140.12V30H136.984V18.72H141.928C142.834 18.72 143.602 18.88 144.232 19.2C144.861 19.5093 145.336 19.9413 145.656 20.496C145.976 21.04 146.136 21.6533 146.136 22.336C146.136 23.104 145.922 23.7813 145.496 24.368C145.08 24.944 144.466 25.3547 143.656 25.6L146.2 30H142.696ZM140.12 23.696H141.672C142.098 23.696 142.418 23.5947 142.632 23.392C142.845 23.1893 142.952 22.896 142.952 22.512C142.952 22.1493 142.84 21.8667 142.616 21.664C142.402 21.4507 142.088 21.344 141.672 21.344H140.12V23.696ZM156.17 30.112C155.114 30.112 154.143 29.8667 153.258 29.376C152.372 28.8747 151.668 28.1867 151.146 27.312C150.634 26.4267 150.378 25.4293 150.378 24.32C150.378 23.2107 150.634 22.2187 151.146 21.344C151.668 20.4587 152.372 19.7707 153.258 19.28C154.143 18.7893 155.114 18.544 156.17 18.544C157.236 18.544 158.207 18.7893 159.082 19.28C159.967 19.7707 160.666 20.4587 161.178 21.344C161.69 22.2187 161.946 23.2107 161.946 24.32C161.946 25.4293 161.69 26.4267 161.178 27.312C160.666 28.1867 159.967 28.8747 159.082 29.376C158.196 29.8667 157.226 30.112 156.17 30.112ZM156.17 27.2C156.97 27.2 157.599 26.9387 158.058 26.416C158.527 25.8933 158.762 25.1947 158.762 24.32C158.762 23.424 158.527 22.72 158.058 22.208C157.599 21.6853 156.97 21.424 156.17 21.424C155.359 21.424 154.724 21.6853 154.266 22.208C153.807 22.72 153.578 23.424 153.578 24.32C153.578 25.2053 153.807 25.9093 154.266 26.432C154.724 26.944 155.359 27.2 156.17 27.2ZM171.963 30.112C170.907 30.112 169.937 29.8667 169.051 29.376C168.166 28.8747 167.462 28.1867 166.939 27.312C166.427 26.4267 166.171 25.4293 166.171 24.32C166.171 23.2107 166.427 22.2187 166.939 21.344C167.462 20.4587 168.166 19.7707 169.051 19.28C169.937 18.7893 170.907 18.544 171.963 18.544C173.03 18.544 174.001 18.7893 174.875 19.28C175.761 19.7707 176.459 20.4587 176.971 21.344C177.483 22.2187 177.739 23.2107 177.739 24.32C177.739 25.4293 177.483 26.4267 176.971 27.312C176.459 28.1867 175.761 28.8747 174.875 29.376C173.99 29.8667 173.019 30.112 171.963 30.112ZM171.963 27.2C172.763 27.2 173.393 26.9387 173.851 26.416C174.321 25.8933 174.555 25.1947 174.555 24.32C174.555 23.424 174.321 22.72 173.851 22.208C173.393 21.6853 172.763 21.424 171.963 21.424C171.153 21.424 170.518 21.6853 170.059 22.208C169.601 22.72 169.371 23.424 169.371 24.32C169.371 25.2053 169.601 25.9093 170.059 26.432C170.518 26.944 171.153 27.2 171.963 27.2ZM190.845 18.72V21.216H187.837V30H184.701V21.216H181.725V18.72H190.845Z" fill="black"/>
<path fill-rule="evenodd" clip-rule="evenodd" d="M34.0964 35.623C34.0964 35.623 32.7995 40.2431 33.05 43.2294C33.282 45.9812 38.2044 48 41.1968 48H31.2175C29.5775 48 30.16 45.6356 30.7943 44.0401C31.4298 42.4458 34.0964 35.623 34.0964 35.623Z" fill="black"/>
<path d="M44.0497 0.000244141L25.572 48H20.4275L38.9731 0.000244141H44.0497Z" fill="black"/>
<path fill-rule="evenodd" clip-rule="evenodd" d="M27.9622 0.00023736C27.9622 0.00023736 29.6664 -0.0972478 29.4467 3.65902C29.1617 8.55919 26.1902 16.247 23.4224 24.0001C21.0877 30.539 18.0027 36.7238 15.3866 39.8927C11.9278 44.0821 7.96047 48 0 48H13.1531C17.6263 48 22.4833 32.0001 25.741 24.0001C28.9334 16.1581 34.6381 0.00023736 34.6381 0.00023736H27.9622Z" fill="black"/>
</svg>
