<?xml version="1.0" encoding="UTF-8"?>
<svg xmlns="http://www.w3.org/2000/svg" version="1.1" viewBox="0 0 743.6 181">
  <!-- Generator: Adobe Illustrator 28.7.1, SVG Export Plug-In . SVG Version: 1.2.0 Build 142)  -->
  <g>
    <g id="katman_1">
      <g>
        <path d="M294.3,145.1h23.4l-42.6-121h-27.1l-42.6,121h23.4l10-29.8h45.5l10,29.8h0ZM244.8,97.7l16.4-48.7h.9l16.4,48.7h-33.6ZM340.8,92v53.2h-21.4V54.4h20.5v15.4h1c2.1-5.1,5.5-9.1,10-12.1s10.3-4.5,17-4.5,11.7,1.4,16.4,4c4.6,2.7,8.3,6.6,10.8,11.6,2.6,5.1,3.8,11.2,3.8,18.5v57.7h-21.4v-54.5c0-6.1-1.5-10.8-4.7-14.2-3.2-3.4-7.4-5.1-13-5.1s-7.1.8-10,2.5c-2.9,1.6-5.1,4-6.8,7.1-1.5,3-2.4,6.7-2.4,11.1h0ZM446.2,181c-7.7,0-14.2-1-19.8-3.1-5.5-2-9.9-4.8-13.3-8.3s-5.7-7.3-6.9-11.5l19.3-4.6c.9,1.8,2.1,3.5,3.8,5.3,1.7,1.7,3.9,3.2,6.7,4.4s6.4,1.7,10.7,1.7c6.1,0,11.1-1.5,15.1-4.4,4-2.9,6-7.7,6-14.4v-17.2h-1c-1.1,2.2-2.7,4.5-4.8,6.8-2.1,2.4-4.9,4.3-8.3,5.8-3.5,1.5-7.8,2.4-13,2.4s-13.3-1.7-19-5c-5.6-3.3-10.2-8.2-13.5-14.8-3.4-6.6-5-14.8-5-24.7s1.7-18.4,5-25.3c3.4-6.9,7.8-12.1,13.5-15.7,5.7-3.6,12-5.3,19-5.3s9.7.9,13.1,2.7c3.5,1.8,6.2,4,8.2,6.4,2,2.5,3.6,4.8,4.6,7.1h1.2v-15h21.1v92.2c0,7.8-1.9,14.2-5.6,19.3-3.7,5.1-8.7,8.9-15.2,11.4-6.5,2.6-13.8,3.8-21.9,3.8ZM446.4,127c4.5,0,8.4-1.1,11.6-3.3,3.2-2.2,5.6-5.4,7.3-9.5,1.7-4.1,2.5-9.1,2.5-14.9s-.8-10.7-2.5-15c-1.6-4.3-4-7.6-7.2-10-3.2-2.4-7.1-3.6-11.6-3.6s-8.7,1.2-12,3.7c-3.2,2.5-5.6,5.9-7.2,10.2-1.6,4.3-2.4,9.2-2.4,14.7s.8,10.4,2.5,14.6c1.6,4.1,4,7.4,7.2,9.7,3.2,2.3,7.1,3.5,11.8,3.5h0ZM553.6,107v-52.5h21.4v90.7h-20.8v-16.1h-.9c-2,5.1-5.4,9.2-10.1,12.5-4.7,3.2-10.4,4.8-17.2,4.8s-11.2-1.3-15.7-4c-4.5-2.7-8.1-6.5-10.7-11.6-2.5-5.1-3.8-11.3-3.8-18.5v-57.8h21.4v54.5c0,5.8,1.5,10.4,4.7,13.7,3.2,3.4,7.3,5.1,12.4,5.1s6.2-.7,9.2-2.3c3-1.5,5.4-3.8,7.3-6.9,1.9-3.1,2.9-6.9,2.9-11.5h0ZM603.4,24.1v121h-21.4V24.1h21.4ZM637.3,146.9c-5.8,0-10.9-1-15.5-3.1-4.6-2-8.2-5.1-10.8-9.2-2.7-4-4-9-4-15s.9-9.4,2.8-12.7c1.9-3.4,4.5-6,7.8-8,3.3-2,6.9-3.5,11.1-4.6,4.1-1,8.4-1.8,12.8-2.3,5.3-.6,9.6-1,13-1.5,3.3-.4,5.7-1.2,7.2-2.1,1.5-1,2.3-2.5,2.3-4.5v-.4c0-4.5-1.3-7.9-4-10.4-2.7-2.4-6.4-3.7-11.4-3.7s-9.4,1.1-12.5,3.4c-3,2.3-5.1,5-6.2,8.1l-20-2.9c1.5-5.5,4.2-10.1,7.8-13.9,3.6-3.7,8.1-6.5,13.3-8.4,5.3-1.9,11-2.8,17.3-2.8s8.7.5,13.1,1.5,8.3,2.7,11.9,5.1c3.6,2.4,6.4,5.5,8.7,9.5,2.2,4,3.3,9,3.3,15.1v60.7h-20.6v-12.5h-.7c-1.3,2.5-3.1,4.9-5.5,7.1-2.3,2.2-5.3,4-8.8,5.3-3.6,1.3-7.7,1.9-12.5,1.9h0ZM642.9,131.2c4.3,0,8-.9,11.2-2.5,3.2-1.7,5.6-4,7.3-6.8,1.7-2.9,2.5-6,2.5-9.3v-10.7c-.7.6-1.8,1-3.4,1.5s-3.3.9-5.3,1.2c-2,.4-3.9.7-5.8.9s-3.6.5-5,.7c-3.2.4-6.1,1.1-8.5,2.1-2.5,1-4.5,2.4-6,4.1-1.5,1.7-2.2,4-2.2,6.8,0,4,1.4,6.9,4.3,8.9,2.8,2.1,6.5,3.1,10.9,3.1h0ZM691.8,145.1V54.4h20.8v15.1h.9c1.7-5.3,4.5-9.3,8.5-12.1,4-2.9,8.7-4.3,13.9-4.3s2.5,0,4,.1c1.5.1,2.7.2,3.7.4v19.6c-.9-.3-2.3-.6-4.3-.9-1.9-.2-3.8-.4-5.6-.4-3.9,0-7.4.9-10.5,2.5s-5.5,4-7.3,6.9-2.7,6.4-2.7,10.2v53.4h-21.4ZM168.2,29.7l-6.1,95.4L104,0l64.1,29.7ZM128,153l-43.9,25-43.9-25,8.9-21.6h69.9l8.9,21.6ZM84.1,47.5l23,55.9h-46s23-55.9,23-55.9ZM6,125L0,29.7,64.1,0,6,125Z"/>
        <path d="M294.3,145.1h23.4l-42.6-121h-27.1l-42.6,121h23.4l10-29.8h45.5l10,29.8h0ZM244.8,97.7l16.4-48.7h.9l16.4,48.7h-33.6ZM340.8,92v53.2h-21.4V54.4h20.5v15.4h1c2.1-5.1,5.5-9.1,10-12.1s10.3-4.5,17-4.5,11.7,1.4,16.4,4c4.6,2.7,8.3,6.6,10.8,11.6,2.6,5.1,3.8,11.2,3.8,18.5v57.7h-21.4v-54.5c0-6.1-1.5-10.8-4.7-14.2-3.2-3.4-7.4-5.1-13-5.1s-7.1.8-10,2.5c-2.9,1.6-5.1,4-6.8,7.1-1.5,3-2.4,6.7-2.4,11.1h0ZM446.2,181c-7.7,0-14.2-1-19.8-3.1-5.5-2-9.9-4.8-13.3-8.3s-5.7-7.3-6.9-11.5l19.3-4.6c.9,1.8,2.1,3.5,3.8,5.3,1.7,1.7,3.9,3.2,6.7,4.4s6.4,1.7,10.7,1.7c6.1,0,11.1-1.5,15.1-4.4,4-2.9,6-7.7,6-14.4v-17.2h-1c-1.1,2.2-2.7,4.5-4.8,6.8-2.1,2.4-4.9,4.3-8.3,5.8-3.5,1.5-7.8,2.4-13,2.4s-13.3-1.7-19-5c-5.6-3.3-10.2-8.2-13.5-14.8-3.4-6.6-5-14.8-5-24.7s1.7-18.4,5-25.3c3.4-6.9,7.8-12.1,13.5-15.7,5.7-3.6,12-5.3,19-5.3s9.7.9,13.1,2.7c3.5,1.8,6.2,4,8.2,6.4,2,2.5,3.6,4.8,4.6,7.1h1.2v-15h21.1v92.2c0,7.8-1.9,14.2-5.6,19.3-3.7,5.1-8.7,8.9-15.2,11.4-6.5,2.6-13.8,3.8-21.9,3.8ZM446.4,127c4.5,0,8.4-1.1,11.6-3.3,3.2-2.2,5.6-5.4,7.3-9.5,1.7-4.1,2.5-9.1,2.5-14.9s-.8-10.7-2.5-15c-1.6-4.3-4-7.6-7.2-10-3.2-2.4-7.1-3.6-11.6-3.6s-8.7,1.2-12,3.7c-3.2,2.5-5.6,5.9-7.2,10.2-1.6,4.3-2.4,9.2-2.4,14.7s.8,10.4,2.5,14.6c1.6,4.1,4,7.4,7.2,9.7,3.2,2.3,7.1,3.5,11.8,3.5h0ZM553.6,107v-52.5h21.4v90.7h-20.8v-16.1h-.9c-2,5.1-5.4,9.2-10.1,12.5-4.7,3.2-10.4,4.8-17.2,4.8s-11.2-1.3-15.7-4c-4.5-2.7-8.1-6.5-10.7-11.6-2.5-5.1-3.8-11.3-3.8-18.5v-57.8h21.4v54.5c0,5.8,1.5,10.4,4.7,13.7,3.2,3.4,7.3,5.1,12.4,5.1s6.2-.7,9.2-2.3c3-1.5,5.4-3.8,7.3-6.9,1.9-3.1,2.9-6.9,2.9-11.5h0ZM603.4,24.1v121h-21.4V24.1h21.4ZM637.3,146.9c-5.8,0-10.9-1-15.5-3.1-4.6-2-8.2-5.1-10.8-9.2-2.7-4-4-9-4-15s.9-9.4,2.8-12.7c1.9-3.4,4.5-6,7.8-8,3.3-2,6.9-3.5,11.1-4.6,4.1-1,8.4-1.8,12.8-2.3,5.3-.6,9.6-1,13-1.5,3.3-.4,5.7-1.2,7.2-2.1,1.5-1,2.3-2.5,2.3-4.5v-.4c0-4.5-1.3-7.9-4-10.4-2.7-2.4-6.4-3.7-11.4-3.7s-9.4,1.1-12.5,3.4c-3,2.3-5.1,5-6.2,8.1l-20-2.9c1.5-5.5,4.2-10.1,7.8-13.9,3.6-3.7,8.1-6.5,13.3-8.4,5.3-1.9,11-2.8,17.3-2.8s8.7.5,13.1,1.5,8.3,2.7,11.9,5.1c3.6,2.4,6.4,5.5,8.7,9.5,2.2,4,3.3,9,3.3,15.1v60.7h-20.6v-12.5h-.7c-1.3,2.5-3.1,4.9-5.5,7.1-2.3,2.2-5.3,4-8.8,5.3-3.6,1.3-7.7,1.9-12.5,1.9h0ZM642.9,131.2c4.3,0,8-.9,11.2-2.5,3.2-1.7,5.6-4,7.3-6.8,1.7-2.9,2.5-6,2.5-9.3v-10.7c-.7.6-1.8,1-3.4,1.5s-3.3.9-5.3,1.2c-2,.4-3.9.7-5.8.9s-3.6.5-5,.7c-3.2.4-6.1,1.1-8.5,2.1-2.5,1-4.5,2.4-6,4.1-1.5,1.7-2.2,4-2.2,6.8,0,4,1.4,6.9,4.3,8.9,2.8,2.1,6.5,3.1,10.9,3.1h0ZM691.8,145.1V54.4h20.8v15.1h.9c1.7-5.3,4.5-9.3,8.5-12.1,4-2.9,8.7-4.3,13.9-4.3s2.5,0,4,.1c1.5.1,2.7.2,3.7.4v19.6c-.9-.3-2.3-.6-4.3-.9-1.9-.2-3.8-.4-5.6-.4-3.9,0-7.4.9-10.5,2.5s-5.5,4-7.3,6.9-2.7,6.4-2.7,10.2v53.4h-21.4ZM168.2,29.7l-6.1,95.4L104,0l64.1,29.7ZM128,153l-43.9,25-43.9-25,8.9-21.6h69.9l8.9,21.6ZM84.1,47.5l23,55.9h-46s23-55.9,23-55.9ZM6,125L0,29.7,64.1,0,6,125Z"/>
      </g>
    </g>
  </g>
</svg>