<?xml version="1.0" encoding="UTF-8"?>
<svg id="Layer_2" data-name="Layer 2" xmlns="http://www.w3.org/2000/svg" viewBox="0 0 93.2 97.09">
  <defs>
    <style>
      .cls-1 {
        fill: none;
        stroke: #6399d2;
        stroke-miterlimit: 10;
        stroke-width: 2px;
      }
    </style>
  </defs>
  <path class="cls-1" d="M82.25,95.31c-11.9-7.25-23.81-14.49-35.71-21.74-11.9,7.25-23.81,14.49-35.71,21.74v-43.48h71.42v43.48ZM82.74,10.65c0-5.33-4.32-9.65-9.65-9.65H20.39c-5.33,0-9.65,4.32-9.65,9.65v30.72h72V10.65ZM92.2,41.38h0s-91.2,0-91.2,0v.74c0,5.36,4.34,9.7,9.7,9.7h71.05c5.77,0,10.45-4.68,10.45-10.45ZM30.62,52.25h-9.74c0,5.34,4.4,9.74,9.74,9.74s9.74-4.4,9.74-9.74h-9.74ZM60.71,51.82h-9.74c0,5.34,4.4,9.74,9.74,9.74s9.74-4.4,9.74-9.74h-9.74Z"/>
</svg>